<svg width="50" height="9" viewBox="0 0 50 9" fill="none" xmlns="http://www.w3.org/2000/svg">
<path fill-rule="evenodd" clip-rule="evenodd" d="M0 0H5.86298C6.95445 0 7.83926 0.884813 7.83926 1.97628H0V0ZM0 2.79973H7.83926C7.83926 4.03673 6.83647 5.03952 5.59947 5.03952H2.60211V8.26746H0V5.03952V4.74308V2.79973ZM16.1726 0H8.72859V1.97628H16.1726V0ZM16.1726 5.03952H11.1989L11.1989 5.86298H16.1726V8.26746L11.1989 8.26746H8.72859V5.03952V4.74308V2.79973H16.1726V5.03952ZM25.8564 0H33.3004V1.97628H25.8564V0ZM28.3267 5.03952H33.3004V2.79973H25.8564V4.74308V5.03952V8.26746H28.3267L33.3004 8.26746V5.86298H28.3267V5.03952ZM22.9908 0H17.0619V1.97628H24.9671C24.9671 0.884813 24.0823 0 22.9908 0ZM17.0619 2.79973H19.5323V8.26745H17.0619V2.79973ZM22.4308 2.79973H24.9012V8.26745H22.4308V2.79973ZM34.1897 1.97628C34.1897 0.884813 35.0745 0 36.166 0H40.1186C41.2086 0 42.0926 0.882502 42.0949 1.97201C42.0972 0.882503 42.9811 0 44.0711 0H48.0237C49.1152 0 50 0.884813 50 1.97628H42.0949H34.1897ZM36.6601 2.79973H34.1897V8.26745H36.6601V2.79973ZM43.3465 2.79973H40.8762V8.26745H43.3465V2.79973ZM50 2.79973H47.5296V8.26745H50V2.79973Z" fill="#040D5F"/>
</svg>
