<svg width="300" height="50" viewBox="0 0 300 50" fill="none" xmlns="http://www.w3.org/2000/svg">
<path fill-rule="evenodd" clip-rule="evenodd" d="M0 0H35.1779C41.7267 0 47.0356 5.30888 47.0356 11.8577H0V0ZM0 16.7984H47.0356C47.0356 24.2204 41.0188 30.2372 33.5968 30.2372H15.6126V49.6047H0V30.2372V28.4585V16.7984ZM97.0356 0H52.3715V11.8577H97.0356V0ZM97.0356 30.2372H67.1937V35.1779H97.0356V49.6047L67.1937 49.6047H52.3716V30.2372V28.4585V16.7984H97.0356V30.2372ZM155.138 0H199.802V11.8577H155.138V0ZM169.961 30.2372H199.802V16.7984H155.138V28.4585V30.2372V49.6047H169.961L199.802 49.6047V35.1779H169.961V30.2372ZM137.945 0H102.372V11.8577H149.802C149.802 5.30888 144.493 0 137.945 0ZM102.372 16.7984H117.194V49.6047H102.372V16.7984ZM134.585 16.7984H149.407V49.6047H134.585V16.7984ZM205.138 11.8577C205.138 5.30888 210.447 0 216.996 0H240.711C247.26 0 252.569 5.30888 252.569 11.8577H205.138ZM252.569 11.8577C252.569 5.30888 257.878 0 264.427 0H288.142C294.691 0 300 5.30888 300 11.8577H252.569ZM219.96 16.7984H205.138V49.6047H219.96V16.7984ZM260.079 16.7984H245.257V49.6047H260.079V16.7984ZM300 16.7984H285.178V49.6047H300V16.7984Z" fill="#040D5F"/>
</svg>
