<svg width="150" height="25" viewBox="0 0 150 25" fill="none" xmlns="http://www.w3.org/2000/svg">
<path fill-rule="evenodd" clip-rule="evenodd" d="M0 0H17.5889C20.8633 0 23.5178 2.65444 23.5178 5.92885H0V0ZM0 8.39921H23.5178C23.5178 12.1102 20.5094 15.1186 16.7984 15.1186H7.80632V24.8024H0V15.1186V14.2292V8.39921ZM48.5178 0H26.1858V5.92885H48.5178V0ZM48.5178 15.1186H33.5968V17.5889H48.5178V24.8024L33.5968 24.8024H26.1858V15.1186V14.2292V8.39921H48.5178V15.1186ZM77.5692 0H99.9012V5.92885H77.5692V0ZM84.9803 15.1186H99.9012V8.39921H77.5692V14.2292V15.1186V24.8024H84.9803L99.9012 24.8024V17.5889H84.9803V15.1186ZM68.9723 0H51.1858V5.92885H74.9012C74.9012 2.65444 72.2467 0 68.9723 0ZM51.1858 8.39921H58.5968V24.8024H51.1858V8.39921ZM67.2925 8.39921H74.7036V24.8024H67.2925V8.39921ZM102.569 5.92885C102.569 2.65444 105.224 0 108.498 0H120.356C123.63 0 126.285 2.65444 126.285 5.92885H102.569ZM126.285 5.92885C126.285 2.65444 128.939 0 132.213 0H144.071C147.346 0 150 2.65444 150 5.92885H126.285ZM109.98 8.39921H102.569V24.8024H109.98V8.39921ZM130.04 8.39921H122.628V24.8024H130.04V8.39921ZM150 8.39921H142.589V24.8024H150V8.39921Z" fill="#040D5F"/>
</svg>
